<?xml version="1.0" encoding="UTF-8"?>
<svg width="28px" height="28px" viewBox="0 0 28 28" version="1.1" xmlns="http://www.w3.org/2000/svg" xmlns:xlink="http://www.w3.org/1999/xlink">
    <!-- Generator: Sketch 52.5 (67469) - http://www.bohemiancoding.com/sketch -->
    <title>Artboard</title>
    <desc>Created with Sketch.</desc>
    <g id="Artboard" stroke="none" stroke-width="1" fill="none" fill-rule="evenodd">
        <g id="github-logo" fill="#FFFFFF" fill-rule="nonzero">
            <path d="M14,28 C6.27977778,28 0,21.7186667 0,14 C0,6.28133333 6.27977778,0 14,0 C21.7202222,0 28,6.28133333 28,14 C28,21.7186667 21.7202222,28 14,28 Z M14,2.11111111 C7.4458254,2.11111111 2.11111111,7.44412698 2.11111111,14 C2.11111111,20.555873 7.4458254,25.8888889 14,25.8888889 C20.5541746,25.8888889 25.8888889,20.555873 25.8888889,14 C25.8888889,7.44412698 20.5541746,2.11111111 14,2.11111111 Z" id="Shape"></path>
            <path d="M16.4344444,14.9737778 C16.7004444,14.9737778 16.926,15.1044444 17.1204444,15.3704444 C17.3133333,15.6333333 17.4113333,15.9584444 17.4113333,16.3426667 C17.4113333,16.7284444 17.3148889,17.0535556 17.1204444,17.3164444 C16.926,17.5793333 16.6988889,17.7115556 16.4344444,17.7115556 C16.1528889,17.7115556 15.9102222,17.5808889 15.7173333,17.3164444 C15.5244444,17.0535556 15.4264444,16.7284444 15.4264444,16.3426667 C15.4264444,15.9568889 15.5228889,15.6333333 15.7173333,15.3704444 C15.9117778,15.1044444 16.1544444,14.9737778 16.4344444,14.9737778 M19.8722222,11.4131111 C20.622,12.2251111 21,13.2097778 21,14.3655556 C21,15.1153333 20.9113333,15.7888889 20.7417778,16.3893333 C20.5691111,16.9866667 20.3497778,17.4751111 20.0884444,17.85 C19.8224444,18.2264444 19.5004444,18.5562222 19.1131111,18.8377778 C18.7257778,19.124 18.3695556,19.3293333 18.0475556,19.4615556 C17.724,19.5937778 17.3537778,19.6948889 16.9337778,19.7664444 C16.52,19.8395556 16.2073333,19.8784444 15.9911111,19.8893333 C15.7811111,19.8986667 15.5524444,19.9033333 15.3066667,19.9033333 C15.2522222,19.9033333 15.0655556,19.9095556 14.7591111,19.9188889 C14.4588889,19.9313333 14.2006667,19.936 14,19.936 C13.7993333,19.936 13.5411111,19.9313333 13.2408889,19.9188889 C12.936,19.9095556 12.7493333,19.9033333 12.6933333,19.9033333 C12.4475556,19.9033333 12.2173333,19.9002222 12.0088889,19.8893333 C11.7911111,19.8784444 11.4784444,19.8395556 11.0662222,19.7664444 C10.6446667,19.6964444 10.276,19.5953333 9.95244444,19.4615556 C9.63044444,19.3308889 9.27422222,19.124 8.88844444,18.8377778 C8.49955556,18.5546667 8.17755556,18.2248889 7.91155556,17.85 C7.65022222,17.4751111 7.43088889,16.9866667 7.25822222,16.3893333 C7.08866667,15.7888889 7,15.1153333 7,14.3655556 C7,13.2097778 7.37644444,12.2251111 8.12777778,11.4131111 C8.04533333,11.3726667 8.04066667,10.9682222 8.11533333,10.1966667 C8.18222222,9.42511111 8.34555556,8.71422222 8.61155556,8.06555556 C9.548,8.16511111 10.7006667,8.694 12.0804444,9.64755556 C12.5471111,9.52622222 13.1848889,9.464 13.9984444,9.464 C14.8524444,9.464 15.4902222,9.52622222 15.918,9.64755556 C16.5464444,9.22288889 17.1484444,8.876 17.7224444,8.61155556 C18.3042222,8.35022222 18.7242222,8.19622222 18.9886667,8.15577778 L19.3837778,8.06555556 C19.6513333,8.71422222 19.8146667,9.42666667 19.8815556,10.1966667 C19.9593333,10.9682222 19.9546667,11.3726667 19.8722222,11.4131111 M14.0326667,19.2328889 C15.7173333,19.2328889 16.9866667,19.0322222 17.85,18.6262222 C18.7102222,18.2217778 19.1457778,17.388 19.1457778,16.1295556 C19.1457778,15.4 18.872,14.7902222 18.3228889,14.3033333 C18.0413333,14.0388889 17.71,13.8786667 17.3304444,13.8164444 C16.9602222,13.7557778 16.3862222,13.7557778 15.6131111,13.8164444 C14.8431111,13.8786667 14.3157778,13.9066667 14.0326667,13.9066667 C13.6468889,13.9066667 13.2284444,13.8864444 12.7088889,13.846 C12.1893333,13.8071111 11.7817778,13.7822222 11.4908889,13.7697778 C11.1937778,13.7604444 10.8764444,13.7977778 10.5326667,13.8771111 C10.1857778,13.9595556 9.90422222,14.0995556 9.67711111,14.3017778 C9.15444444,14.7684444 8.88844444,15.3766667 8.88844444,16.128 C8.88844444,17.3864444 9.31466667,18.2202222 10.1655556,18.6246667 C11.0164444,19.0306667 12.2826667,19.2313333 13.9673333,19.2313333 M11.5966667,14.9737778 C11.8611111,14.9737778 12.0882222,15.1044444 12.2811111,15.3704444 C12.474,15.6333333 12.572,15.9584444 12.572,16.3426667 C12.572,16.7284444 12.4755556,17.0535556 12.2811111,17.3164444 C12.0882222,17.5793333 11.8595556,17.7115556 11.5966667,17.7115556 C11.3135556,17.7115556 11.0724444,17.5808889 10.878,17.3164444 C10.6851111,17.0535556 10.5871111,16.7284444 10.5871111,16.3426667 C10.5871111,15.9568889 10.6835556,15.6333333 10.878,15.3704444 C11.0724444,15.1044444 11.3135556,14.9737778 11.5966667,14.9737778" id="Shape"></path>
        </g>
    </g>
</svg>